<?xml version="1.0" encoding="UTF-8" standalone="no"?>
<!-- Created with Inkscape (http://www.inkscape.org/) -->

<svg
   xmlns:dc="http://purl.org/dc/elements/1.1/"
   xmlns:cc="http://creativecommons.org/ns#"
   xmlns:rdf="http://www.w3.org/1999/02/22-rdf-syntax-ns#"
   xmlns:svg="http://www.w3.org/2000/svg"
   xmlns="http://www.w3.org/2000/svg"
   xmlns:xlink="http://www.w3.org/1999/xlink"
   xmlns:sodipodi="http://sodipodi.sourceforge.net/DTD/sodipodi-0.dtd"
   xmlns:inkscape="http://www.inkscape.org/namespaces/inkscape"
   inkscape:export-ydpi="95.800026"
   inkscape:export-xdpi="95.800026"
   inkscape:export-filename="C:\dev\weeplayer-desktop\weeplayer_app\src\main\resources\images\logo_tray_16.png"
   sodipodi:docname="weeplayer_logo.svg"
   inkscape:version="0.91 r13725"
   version="1.1"
   id="svg2"
   viewBox="0 0 744.09448819 1052.3622047"
   height="297mm"
   width="210mm">
  <defs
     id="defs4">
    <linearGradient
       inkscape:collect="always"
       id="linearGradient4147">
      <stop
         style="stop-color:#000080;stop-opacity:1"
         offset="0"
         id="stop4149" />
      <stop
         style="stop-color:#0044aa;stop-opacity:1"
         offset="1"
         id="stop4151" />
    </linearGradient>
    <radialGradient
       inkscape:collect="always"
       xlink:href="#linearGradient4147"
       id="radialGradient4153"
       cx="709.09381"
       cy="887.52594"
       fx="709.09381"
       fy="887.52594"
       r="7.515655"
       gradientUnits="userSpaceOnUse"
       gradientTransform="matrix(2.0323591,2.0209421,-0.84325995,0.84809929,19.407813,-1295.3256)" />
  </defs>
  <sodipodi:namedview
     inkscape:window-maximized="1"
     inkscape:window-y="-8"
     inkscape:window-x="-8"
     inkscape:window-height="1028"
     inkscape:window-width="1920"
     showgrid="false"
     inkscape:current-layer="layer1"
     inkscape:document-units="px"
     inkscape:cy="159.32541"
     inkscape:cx="708.12139"
     inkscape:zoom="44.8"
     inkscape:pageshadow="2"
     inkscape:pageopacity="0.0"
     borderopacity="1.0"
     bordercolor="#666666"
     pagecolor="#ffffff"
     id="base" />
  <metadata
     id="metadata7">
    <rdf:RDF>
      <cc:Work
         rdf:about="">
        <dc:format>image/svg+xml</dc:format>
        <dc:type
           rdf:resource="http://purl.org/dc/dcmitype/StillImage" />
      </cc:Work>
    </rdf:RDF>
  </metadata>
  <g
     inkscape:label="Layer 1"
     inkscape:groupmode="layer"
     id="layer1">
    <g
       id="g5762"
       inkscape:export-filename="C:\dev\weeplayer-desktop\weeplayer_app\src\main\resources\images\logo_tray_256.png"
       inkscape:export-xdpi="1532.8004"
       inkscape:export-ydpi="1532.8004">
      <g
         style="fill:url(#radialGradient4153);fill-opacity:1"
         inkscape:export-filename="C:\dev\weeplayer-desktop\weeplayer_app\src\main\resources\images\logo_tray_16.png"
         inkscape:export-ydpi="95.800026"
         inkscape:export-xdpi="95.800026"
         transform="translate(-9.0913742,-6.1871835)"
         id="g3355">
        <path
           inkscape:connector-curvature="0"
           id="path3357"
           d="m 719.99997,905.59216 -5.26096,0 -1.12735,-1.12734 -1.12735,-1.12735 0,-5.26096 0,-5.26096 1.12735,-1.12735 1.12735,-1.12735 5.26096,0 5.26096,0 1.12735,1.12735 1.12734,1.12735 0,5.26096 0,5.26096 -1.12734,1.12735 -1.12735,1.12734 -5.26096,0 z m 4.46242,-2.25938 2.11378,-1.78965 0,-2.99689 0,-2.9969 -2.11378,-1.78965 -2.11378,-1.78965 1.64405,1.95288 1.64405,1.95289 0,2.67043 0,2.67042 -1.64405,1.95289 -1.64405,1.95289 2.11378,-1.78966 z m -4.40698,-0.55899 0.88401,0 0,-4.22755 0,-4.22756 -0.88401,0 c -0.48621,0 -1.14529,0.42275 -1.46463,0.93946 l -0.58061,0.93945 -2.2932,0 -2.2932,0 0,2.34865 0,2.34864 2.2932,0 2.2932,0 0.58061,0.93946 c 0.31934,0.5167 0.97842,0.93945 1.46463,0.93945 z m 2.99779,-0.86493 1.64405,-1.24404 0,-2.11858 0,-2.11858 -1.64405,-1.24405 -1.64405,-1.24404 1.17432,1.3169 1.17433,1.31691 0,1.97286 0,1.97286 -1.17433,1.3169 -1.17432,1.31691 1.64405,-1.24405 z m -0.60673,-2.20787 0.56759,-0.56759 -0.49342,-1.23304 -0.49342,-1.23304 -0.0742,1.80063 -0.0742,1.80062 0.56759,-0.56758 z"
           style="fill:url(#radialGradient4153);fill-opacity:1" />
      </g>
      <path
         inkscape:export-ydpi="95.800026"
         inkscape:export-xdpi="95.800026"
         inkscape:export-filename="C:\dev\weeplayer-desktop\weeplayer_app\src\main\resources\images\logo_tray_16.png"
         inkscape:connector-curvature="0"
         id="path3361"
         d="m 710.63477,896.48455 c -0.5079,-0.15873 -0.88708,-0.51936 -1.35342,-1.2872 l -0.31803,-0.52363 -2.31051,0 -2.31051,0 0,-2.34761 0,-2.34762 2.32382,-0.0167 2.32382,-0.0167 0.31309,-0.50776 c 0.62367,-1.01147 1.06098,-1.30114 1.96431,-1.30114 l 0.55831,0 0,4.22077 0,4.22077 -0.45978,-0.004 c -0.25288,-0.002 -0.58187,-0.0424 -0.7311,-0.0891 z"
         style="opacity:1;fill:#ffff00;fill-opacity:1;stroke:none;stroke-width:0.06313454;stroke-opacity:1" />
      <path
         inkscape:export-ydpi="95.800026"
         inkscape:export-xdpi="95.800026"
         inkscape:export-filename="C:\dev\weeplayer-desktop\weeplayer_app\src\main\resources\images\logo_tray_16.png"
         inkscape:connector-curvature="0"
         id="path3365"
         d="m 712.80233,896.49167 c 0,-0.0127 0.42599,-0.50274 0.94665,-1.08907 l 0.94664,-1.06605 3.7e-4,-1.97919 3.7e-4,-1.97918 -0.98507,-1.10266 c -0.5418,-0.60645 -0.97496,-1.11277 -0.9626,-1.12513 0.0124,-0.0124 0.65294,0.45111 1.42348,1.02996 l 1.401,1.05246 0.003,2.115 0.003,2.11501 -1.35357,1.02594 c -1.2433,0.94236 -1.4242,1.06975 -1.4242,1.00291 z"
         style="opacity:1;fill:#ffff00;fill-opacity:1;stroke:none;stroke-width:0.06313454;stroke-opacity:1" />
      <path
         inkscape:export-ydpi="95.800026"
         inkscape:export-xdpi="95.800026"
         inkscape:export-filename="C:\dev\weeplayer-desktop\weeplayer_app\src\main\resources\images\logo_tray_16.png"
         inkscape:connector-curvature="0"
         id="path3367"
         d="m 713.68621,898.50387 c 0,-0.0206 0.65259,-0.81041 1.4502,-1.75514 l 1.45019,-1.7177 0.002,-2.6668 0.002,-2.66681 -1.41899,-1.68575 c -0.78044,-0.92717 -1.40806,-1.69669 -1.39471,-1.71004 0.0134,-0.0134 0.85078,0.67582 1.86093,1.53151 l 1.83665,1.5558 -0.002,2.97888 -0.002,2.97888 -1.21336,1.02029 c -0.66735,0.56116 -1.51878,1.27995 -1.89206,1.59731 -0.37329,0.31736 -0.6787,0.56017 -0.6787,0.53957 z"
         style="opacity:1;fill:#ffff00;fill-opacity:1;stroke:none;stroke-width:0.06313454;stroke-opacity:1" />
      <path
         inkscape:connector-curvature="0"
         id="path5742"
         d="m 716.54531,889.8964 0,-0.21082 -1.62995,-1.93612 c -0.89647,-1.06487 -1.62938,-1.93664 -1.62867,-1.93728 7e-4,-6.3e-4 0.54019,0.45517 1.19886,1.01289 1.05449,0.89288 1.95963,1.65926 2.34288,1.98371 l 0.12331,0.10439 0,0.0157 0,0.0157 -0.009,-0.008 c -0.009,-0.008 -0.80574,-0.68279 -1.34886,-1.14222 -1.04963,-0.88792 -1.8036,-1.5074 -1.8176,-1.4934 -0.0115,0.0115 0.36214,0.47538 0.97914,1.2158 0.21043,0.25253 0.38449,0.45972 1.21097,1.44151 l 0.62221,0.73914 0,0.20492 0,0.20492 -0.0217,0 -0.0217,0 0,-0.21082 z"
         style="opacity:1;fill:#ffff00;fill-opacity:1;stroke:none;stroke-opacity:1" />
      <path
         inkscape:connector-curvature="0"
         id="path5744"
         d="m 713.38532,888.94667 c -0.5692,-0.6383 -1.03405,-1.16142 -1.033,-1.16247 0.001,-0.001 0.58578,0.43988 1.2994,0.97985 0.71361,0.53998 1.40439,1.06265 1.53508,1.16149 0.16115,0.12188 0.23517,0.18011 0.23005,0.18094 -0.005,8.2e-4 -0.26057,-0.18875 -0.75847,-0.5626 -1.10861,-0.83244 -1.54874,-1.15685 -1.80644,-1.33149 -0.0764,-0.0518 -0.0965,-0.0637 -0.10328,-0.0615 -0.0129,0.004 0.20239,0.26277 0.54307,0.65206 0.17106,0.19545 0.29009,0.32951 0.76913,0.86623 0.20824,0.2333 0.38126,0.42729 0.3845,0.43109 0.005,0.006 0.005,0.007 -0.01,0.007 l -0.0155,0 -1.03491,-1.16055 z"
         style="opacity:1;fill:#ffff00;fill-opacity:1;stroke:none;stroke-opacity:1" />
      <path
         inkscape:connector-curvature="0"
         id="path5746"
         d="m 711.79346,889.14343 -10e-4,-0.96378 -0.25845,-0.001 c -0.50681,-0.002 -0.69217,0.0112 -0.91151,0.0661 -0.11714,0.0294 -0.20579,0.0623 -0.31567,0.11721 -0.24057,0.12028 -0.44939,0.30539 -0.68036,0.60311 -0.11488,0.14808 -0.2356,0.32894 -0.43059,0.64513 -0.25221,0.40896 -0.22327,0.36481 -0.24007,0.36623 l -0.0147,0.001 0.009,-0.0151 c 0.005,-0.008 0.13343,-0.2157 0.28495,-0.46093 0.15153,-0.24524 0.28619,-0.46187 0.29923,-0.48141 0.14359,-0.2149 0.36116,-0.42823 0.59649,-0.58484 0.21476,-0.14291 0.42914,-0.23822 0.62872,-0.27949 0.10263,-0.0212 0.11107,-0.0215 0.61717,-0.0215 l 0.4686,0 0,0.98648 0,0.98647 -0.0256,0 -0.0256,0 -9.9e-4,-0.96379 z"
         style="opacity:1;fill:#ffff00;fill-opacity:1;stroke:none;stroke-opacity:1" />
      <path
         inkscape:connector-curvature="0"
         id="path5748"
         d="m 712.36465,896.91827 c 0.006,-0.007 0.51977,-0.58335 1.14068,-1.28006 0.62091,-0.69671 1.13731,-1.27617 1.14756,-1.28769 l 0.0186,-0.0209 0,-1.1021 c 0,-1.09839 4e-5,-1.10211 0.0112,-1.10211 0.0111,0 0.0112,0.004 0.0112,1.10519 l 0,1.10518 -0.43963,0.49499 c -1.12537,1.26707 -1.45211,1.64172 -1.45211,1.665 0,0.0373 0.0968,-0.0174 0.33762,-0.19084 0.1587,-0.11427 0.88019,-0.65699 1.71874,-1.29289 l 0.71987,-0.54589 0,-1.17037 0,-1.17037 0.0125,0 0.0126,0 -2.3e-4,1.17606 -2.2e-4,1.17606 -1.61908,1.22489 c -0.89049,0.67369 -1.62176,1.22586 -1.62505,1.22705 -0.003,0.001 -6.9e-4,-0.004 0.006,-0.0112 z"
         style="opacity:1;fill:#ffff00;fill-opacity:1;stroke:none;stroke-opacity:1" />
      <path
         inkscape:connector-curvature="0"
         id="path5750"
         d="m 713.30434,898.88684 c 0,-0.002 0.72949,-0.86983 1.6211,-1.92892 l 1.62109,-1.92561 0,-0.49086 0,-0.49085 0.0195,0 0.0195,0 -1.3e-4,0.48967 -1.4e-4,0.48968 -0.4219,0.49944 c -1.49955,1.77515 -1.93879,2.29911 -2.28703,2.72814 -0.15318,0.18871 -0.19426,0.2428 -0.18643,0.24543 0.0226,0.008 0.25904,-0.18403 0.98715,-0.80022 0.49257,-0.41685 1.68041,-1.41777 2.40373,-2.02547 l 0.39188,-0.32924 8e-5,-0.64872 c 4e-5,-0.42871 0.002,-0.64871 0.006,-0.64871 0.004,0 0.006,0.22086 0.006,0.6515 l -4e-5,0.65151 -0.0795,0.0672 c -0.0437,0.0369 -0.45615,0.38608 -0.91653,0.77584 -1.54513,1.30813 -3.16405,2.67812 -3.17387,2.68584 -0.005,0.004 -0.01,0.006 -0.01,0.004 z"
         style="opacity:1;fill:#ffff00;fill-opacity:1;stroke:none;stroke-opacity:1" />
      <path
         inkscape:connector-curvature="0"
         id="path5752"
         d="m 710.86015,896.57786 c -0.43097,-0.0491 -0.96176,-0.38743 -1.27765,-0.81438 -0.0262,-0.0354 -0.0709,-0.102 -0.0993,-0.14788 -0.0284,-0.0459 -0.16653,-0.26924 -0.30693,-0.49636 l -0.25529,-0.41295 -1.87359,-0.001 c -1.66025,-0.001 -1.87359,-0.002 -1.87359,-0.01 0,-0.007 0.21387,-0.008 1.88477,-0.008 l 1.88476,2.1e-4 0.17299,0.28556 c 0.25484,0.42066 0.33166,0.53888 0.46877,0.7214 0.10644,0.14169 0.16873,0.21378 0.28711,0.33224 0.11847,0.11856 0.19349,0.18163 0.3016,0.25356 0.20986,0.13962 0.40728,0.21601 0.65569,0.25372 0.20469,0.0311 0.33556,0.0395 0.66825,0.0432 l 0.29437,0.003 0,-2.35849 0,-2.35849 0.0279,0 0.0279,0 0,2.36049 0,2.36049 -0.47294,-7.3e-4 c -0.26011,-3.9e-4 -0.49177,-0.003 -0.51478,-0.005 z"
         style="opacity:1;fill:#ffff00;fill-opacity:1;stroke:none;stroke-opacity:1" />
      <g
         id="g5756">
        <path
           style="opacity:1;fill:#ffff00;fill-opacity:1;stroke:none;stroke-width:0.06313454;stroke-opacity:1"
           d="m 712.84204,893.35468 c 0.0187,-0.36279 0.053,-1.1284 0.0761,-1.70135 l 0.042,-1.04172 0.46691,1.15836 0.4669,1.15836 -0.54299,0.54299 -0.54299,0.54299 0.034,-0.65963 z"
           id="path3363"
           inkscape:connector-curvature="0"
           inkscape:export-filename="C:\dev\weeplayer-desktop\weeplayer_app\src\main\resources\images\logo_tray_16.png"
           inkscape:export-xdpi="95.800026"
           inkscape:export-ydpi="95.800026" />
        <path
           style="opacity:1;fill:#ffff00;fill-opacity:1;stroke:none;stroke-opacity:1"
           d="m 712.78978,894.0708 c 0,-0.008 0.14573,-3.54409 0.14683,-3.56281 0.001,-0.0179 0.0387,0.0745 0.49226,1.20858 l 0.49112,1.22797 -0.56511,0.5651 c -0.31081,0.31081 -0.5651,0.56333 -0.5651,0.56116 z m 0.56391,-0.59942 0.5422,-0.54221 -0.46693,-1.15845 c -0.25682,-0.63715 -0.46771,-1.15767 -0.46866,-1.15672 -9.5e-4,9.5e-4 -0.007,0.12745 -0.013,0.28111 -0.0496,1.22553 -0.0642,1.56659 -0.0905,2.12214 -0.015,0.31696 -0.0463,0.93485 -0.0491,0.9697 -0.001,0.0147 -7.9e-4,0.0266 8.6e-4,0.0266 0.002,0 0.24698,-0.244 0.54519,-0.54221 z"
           id="path5754"
           inkscape:connector-curvature="0" />
      </g>
      <path
         inkscape:connector-curvature="0"
         id="path5760"
         d="m 710.16136,896.26785 c -0.24894,-0.17106 -0.5046,-0.45287 -0.75098,-0.82782 -0.0471,-0.0716 -0.17133,-0.27138 -0.27616,-0.44392 l -0.19059,-0.3137 -1.71766,0 c -1.61609,0 -2.08778,0.004 -2.03194,0.0165 0.013,0.003 -0.17431,0.006 -0.4163,0.006 -0.43501,9.2e-4 -0.43996,7.5e-4 -0.43996,-0.0149 0,-0.0157 0.005,-0.0158 2.31121,-0.0158 l 2.31122,0 0.19561,0.32159 c 0.32387,0.53249 0.45857,0.72426 0.6826,0.97183 0.0931,0.10289 0.2524,0.23996 0.3788,0.32596 0.0108,0.007 0.0159,0.0136 0.0112,0.0138 -0.005,2.2e-4 -0.0348,-0.0177 -0.0671,-0.0399 z"
         style="opacity:1;fill:#ffff00;fill-opacity:1;stroke:none;stroke-opacity:1" />
    </g>
  </g>
</svg>
